<svg width="23" height="21" viewBox="0 0 23 21" fill="none" xmlns="http://www.w3.org/2000/svg">
<path fill-rule="evenodd" clip-rule="evenodd" d="M0.410156 10.1071C0.410156 4.6323 5.3602 0.194336 11.4668 0.194336C17.5733 0.194336 22.5233 4.6323 22.5233 10.1071C22.5233 15.582 17.5733 20.02 11.4668 20.02C5.3602 20.02 0.410156 15.582 0.410156 10.1071ZM11.4668 2.1769C9.12084 2.1769 6.87101 3.0124 5.2122 4.49961C3.55339 5.98682 2.62148 8.00391 2.62148 10.1071C2.62148 12.2104 3.55339 14.2275 5.2122 15.7147C6.87101 17.2019 9.12084 18.0374 11.4668 18.0374C13.8127 18.0374 16.0625 17.2019 17.7213 15.7147C19.3801 14.2275 20.312 12.2104 20.312 10.1071C20.312 8.00391 19.3801 5.98682 17.7213 4.49961C16.0625 3.0124 13.8127 2.1769 11.4668 2.1769Z" fill="white"/>
<path fill-rule="evenodd" clip-rule="evenodd" d="M12.5726 5.15046C12.5726 4.88756 12.4561 4.63542 12.2488 4.44952C12.0414 4.26362 11.7602 4.15918 11.467 4.15918C11.1737 4.15918 10.8925 4.26362 10.6851 4.44952C10.4778 4.63542 10.3613 4.88756 10.3613 5.15046V9.11559H5.93867C5.64543 9.11559 5.3642 9.22002 5.15685 9.40593C4.9495 9.59183 4.83301 9.84396 4.83301 10.1069C4.83301 10.3698 4.9495 10.6219 5.15685 10.8078C5.3642 10.9937 5.64543 11.0981 5.93867 11.0981H10.3613V15.0633C10.3613 15.3262 10.4778 15.5783 10.6851 15.7642C10.8925 15.9501 11.1737 16.0546 11.467 16.0546C11.7602 16.0546 12.0414 15.9501 12.2488 15.7642C12.4561 15.5783 12.5726 15.3262 12.5726 15.0633V11.0981H16.9953C17.2885 11.0981 17.5697 10.9937 17.7771 10.8078C17.9844 10.6219 18.1009 10.3698 18.1009 10.1069C18.1009 9.84396 17.9844 9.59183 17.7771 9.40593C17.5697 9.22002 17.2885 9.11559 16.9953 9.11559H12.5726V5.15046Z" fill="white"/>
</svg>
