<svg width="18" height="17" viewBox="0 0 18 17" fill="none" xmlns="http://www.w3.org/2000/svg">
<path fill-rule="evenodd" clip-rule="evenodd" d="M2.30703 0.337678C2.05862 0.115435 1.73005 -0.005555 1.39055 0.000196017C1.05106 0.00594703 0.727138 0.137991 0.487041 0.368508C0.246944 0.599026 0.109413 0.910019 0.103423 1.23597C0.0974327 1.56192 0.223451 1.87738 0.454929 2.11588L6.95476 8.35638L0.454929 14.5969C0.326179 14.7121 0.222911 14.851 0.151287 15.0053C0.0796635 15.1596 0.0411503 15.3262 0.0380457 15.4952C0.0349412 15.6641 0.0673087 15.8319 0.133217 15.9886C0.199126 16.1452 0.297226 16.2875 0.421664 16.407C0.546102 16.5265 0.69433 16.6207 0.857504 16.684C1.02068 16.7472 1.19546 16.7783 1.37141 16.7753C1.54737 16.7724 1.72089 16.7354 1.88164 16.6666C2.04239 16.5978 2.18706 16.4987 2.30703 16.3751L8.80687 10.1346L15.3067 16.3751C15.4267 16.4987 15.5713 16.5978 15.7321 16.6666C15.8928 16.7354 16.0664 16.7724 16.2423 16.7753C16.4183 16.7783 16.5931 16.7472 16.7562 16.684C16.9194 16.6207 17.0676 16.5265 17.1921 16.407C17.3165 16.2875 17.4146 16.1452 17.4805 15.9886C17.5464 15.8319 17.5788 15.6641 17.5757 15.4952C17.5726 15.3262 17.5341 15.1596 17.4624 15.0053C17.3908 14.851 17.2876 14.7121 17.1588 14.5969L10.659 8.35638L17.1588 2.11588C17.3903 1.87738 17.5163 1.56192 17.5103 1.23597C17.5043 0.910019 17.3668 0.599026 17.1267 0.368508C16.8866 0.137991 16.5627 0.00594703 16.2232 0.000196017C15.8837 -0.005555 15.5551 0.115435 15.3067 0.337678L8.80687 6.57817L2.30703 0.337678Z" fill="black"/>
</svg>
